<svg xmlns="http://www.w3.org/2000/svg" viewBox="0 0 200 200" width="200" height="200">
  <defs>
    <linearGradient id="grad1" x1="0%" y1="0%" x2="100%" y2="100%">
      <stop offset="0%" style="stop-color:#667eea;stop-opacity:1" />
      <stop offset="100%" style="stop-color:#764ba2;stop-opacity:1" />
    </linearGradient>
    <filter id="shadow" x="-50%" y="-50%" width="200%" height="200%">
      <feDropShadow dx="0" dy="2" stdDeviation="3" flood-opacity="0.3"/>
    </filter>
  </defs>

  <!-- Background -->
  <circle cx="100" cy="100" r="100" fill="url(#grad1)" />

  <!-- Head -->
  <circle cx="100" cy="70" r="28" fill="#f4a460" filter="url(#shadow)" />

  <!-- Hair -->
  <ellipse cx="100" cy="50" rx="30" ry="25" fill="#2c1810" />
  <path d="M 72 65 Q 70 45 100 40 Q 130 45 128 65" fill="#2c1810" />

  <!-- Face highlight -->
  <ellipse cx="88" cy="65" rx="6" ry="8" fill="#f5c99a" opacity="0.6" />

  <!-- Eyes -->
  <circle cx="92" cy="70" r="2.5" fill="#1a1a1a" />
  <circle cx="108" cy="70" r="2.5" fill="#1a1a1a" />
  <circle cx="93" cy="68.5" r="1" fill="white" />
  <circle cx="109" cy="68.5" r="1" fill="white" />

  <!-- Eyebrows -->
  <path d="M 87 65 Q 92 63 97 65" stroke="#2c1810" stroke-width="1.5" fill="none" stroke-linecap="round" />
  <path d="M 103 65 Q 108 63 113 65" stroke="#2c1810" stroke-width="1.5" fill="none" stroke-linecap="round" />

  <!-- Nose -->
  <line x1="100" y1="70" x2="100" y2="80" stroke="#d4956a" stroke-width="1.5" stroke-linecap="round" />
  <circle cx="97.5" cy="82" r="1.2" fill="#d4956a" />
  <circle cx="102.5" cy="82" r="1.2" fill="#d4956a" />

  <!-- Smile -->
  <path d="M 94 83 Q 100 87 106 83" stroke="#8b4513" stroke-width="1.5" fill="none" stroke-linecap="round" />

  <!-- Neck -->
  <rect x="95" y="95" width="10" height="8" fill="#f4a460" />

  <!-- Body/Shirt -->
  <path d="M 70 103 L 80 103 L 85 140 L 50 140 Z" fill="#4a5568" />
  <path d="M 130 103 L 120 103 L 115 140 L 150 140 Z" fill="#4a5568" />
  <rect x="75" y="103" width="50" height="40" fill="#ffffff" filter="url(#shadow)" />

  <!-- Shirt collar -->
  <path d="M 90 103 L 100 110 L 110 103" fill="none" stroke="#4a5568" stroke-width="1" />

  <!-- Stethoscope (medical symbol) -->
  <g transform="translate(65, 110)">
    <!-- Stethoscope tube -->
    <path d="M 12 5 Q 8 10 8 18 Q 8 22 12 25" stroke="#2c1810" stroke-width="2" fill="none" stroke-linecap="round" />
    <path d="M 12 5 Q 16 10 16 18 Q 16 22 12 25" stroke="#2c1810" stroke-width="2" fill="none" stroke-linecap="round" />
    <!-- Earpieces -->
    <circle cx="7" cy="2" r="1.5" fill="#2c1810" />
    <circle cx="17" cy="2" r="1.5" fill="#2c1810" />
    <!-- Diaphragm -->
    <circle cx="12" cy="26" r="3" fill="#2c1810" stroke="#2c1810" stroke-width="1" />
  </g>

  <!-- Accent stripe (blue/professional) -->
  <rect x="85" y="118" width="30" height="3" fill="#667eea" opacity="0.7" />
</svg>
